/* XPM */
static char * eraser_xpm[] = {
"24 24 5 1",
".	c None",
"+	c #000000",
"@	c #FFFFFF",
"#	c #929292",
"$	c #DBDBDB",
"........................",
"........................",
"........................",
"........................",
"........................",
"........................",
"........................",
"...........++++++++.....",
"..........+@@@@@@++#....",
".........+@@@@@@+$+#....",
"........+@@@@@@+$$+#....",
".......+@@@@@@+$$+##....",
"......+@@@@@@+$$+##.....",
".....+@@@@@@+$$+##......",
"....++++++++$$+##.......",
"....+$$$$$$+$+##........",
"....+$$$$$$++##.........",
"....++++++++##..........",
".....########...........",
"........................",
"........................",
"........................",
"........................",
"........................"};
