/* XPM */
static char * frisket_xpm[] = {
"24 24 5 1",
". 	c None",
"+	c #929292",
"@	c #DBDBDB",
"#	c #000000",
"$	c #FFFFFF",
"........................",
"........................",
"........................",
"..........++............",
".........++++...........",
"........++@@++..........",
"........++@#++..........",
"........++#$++..........",
"........##$$++##........",
"........#$$@++@###......",
".......#$$@$#+@@###.....",
"......#$$@$#@#@@+###....",
".....#$$@$@@#@@++###+...",
"....#$$@$@@@@@++####+...",
"....#$@$@@@@@++#+###+...",
".....#$@@@@@++#++###+...",
"......#$@@@++#++.###+...",
".......#@@++#++..##++...",
"........#++#++...#++....",
".........##++.....+.....",
"..........++............",
"........................",
"........................",
"........................"};
