/* XPM */
static char * gradient_xpm[] = {
"24 24 5 1",
". 	c None",
"+	c #929292",
"@	c #000000",
"#	c #DBDBDB",
"$	c #FFFFFF",
"........................",
"........................",
"........................",
"........................",
"...++++++++++++++++++...",
"...@@@++++########$$+...",
"...@@+@++#+######$#$+...",
"...@@@++++########$$+...",
"...@@+@++#+######$#$+...",
"...@@@++++########$$+...",
"...@@+@++#+######$#$+...",
"...@@@++++########$$+...",
"...@@+@++#+######$#$+...",
"...@@@++++########$$+...",
"...@@+@++#+######$#$+...",
"...@@@++++########$$+...",
"...@@+@++#+######$#$+...",
"...@@@++++########$$+...",
"...@@@@++#+######$#$+...",
"...++++++++++++++++++...",
"........................",
"........................",
"........................",
"........................"};
