/* XPM */
static char * pencil_xpm[] = {
"24 24 5 1",
".	c None",
"+	c #000000",
"@	c #DBDBDB",
"#	c #929292",
"$	c #FFFFFF",
"........................",
"........................",
"........................",
"........................",
"...........++++.........",
"...........+@@@+........",
"..........+@@@@+#.......",
"..........++@@+##.......",
".........+$$+++#........",
".........+$@@+##........",
"........+$$@@+#.........",
"........+$@@+##.........",
".......+$$@@+#..........",
".......+$@@+##..........",
".......++@@+#...........",
".......++++##...........",
".......+++##............",
".......++##.............",
".......+##..............",
"........#...............",
"........................",
"........................",
"........................",
"........................"};
