/* XPM */
static char * quill_xpm[] = {
"24 24 5 1",
".	c None",
"+	c #000000",
"@	c #929292",
"#	c #DBDBDB",
"$	c #FFFFFF",
"........................",
"........................",
"........................",
"................++......",
"...............++@+.....",
"..............++@+++....",
".............++@++++....",
"............++@++++@....",
"...........++@++++@.....",
"..........++@++++@......",
"........+++@++++@.......",
"......+++++++++@........",
".....++#$$++++@.........",
".....+$+@+#++@..........",
"....++$#+@#++@..........",
"....+$$+@+@+@...........",
"....+$+@##++@...........",
"...+$+@#+++@............",
"...++@+++@@.............",
"..++++@@@...............",
"..++@@..................",
"...@@...................",
"........................",
"........................"};
