/* XPM */
static char * scraper_xpm[] = {
"24 24 4 1",
". 	c None",
"+	c #929292",
"@	c #000000",
"#	c #FFFFFF",
"........................",
"........................",
"........................",
"........................",
".................+@+....",
"................+@@@....",
"...............+@@@+....",
"..............+@@@++....",
".............+@@@++.....",
"............+@@@++......",
"...........+@@@++.......",
"..........+@@@++........",
".........+@@@++.........",
"........+@@@++..........",
".......+@@@++...........",
"......+@##@+............",
".....+@##@+.............",
"....++##@+..............",
"....@@@@+...............",
"........................",
"........................",
"........................",
"........................",
"........................"};
